# xmcd CD database file
#
# Track frame offsets:
#	150
#	16568
#	34754
#	56239
#	76476
#	91242
#	108798
#	132755
#	147131
#	171249
#	185528
#	206347
#	220338
#	238400
#	262463
#
# Disc length: 3669 seconds
#
# Revision: 0
# Processed by: cddbd v1.5.2PL0 Copyright (c) Steve Scherf et al.
# Submitted via: CDex 1.70beta2
#
DISCID=d50e530f
DTITLE=Vernon Carne - What Touches the Soul
DYEAR=2007
DGENRE=Jazz
TTITLE0=The Tender Heart
TTITLE1=Colera
TTITLE2=Brioso
TTITLE3=Far from the Things of Man
TTITLE4=Two Hearts
TTITLE5=Noon at Midnight
TTITLE6=From the Ashes
TTITLE7=Remember Me When I'm Gone
TTITLE8=When the Sun Hangs Low
TTITLE9=A Walk in the Park
TTITLE10=Foz de Iguacu (Iguazu Falls)
TTITLE11=Just Happy to Be
TTITLE12=Light and Shadow
TTITLE13=Migrations
TTITLE14=What Touches the Soul
EXTD=YEAR: 2007
EXTT0=
EXTT1=
EXTT2=
EXTT3=
EXTT4=
EXTT5=
EXTT6=
EXTT7=
EXTT8=
EXTT9=
EXTT10=
EXTT11=
EXTT12=
EXTT13=
EXTT14=
PLAYORDER=
